<svg width="14" height="14" viewBox="0 0 14 14" fill="none" xmlns="http://www.w3.org/2000/svg">
<path d="M12.5 7C12.5 5.54131 11.9201 4.14278 10.8887 3.11133C9.85722 2.07988 8.45869 1.5 7 1.5C5.54131 1.5 4.14278 2.07988 3.11133 3.11133C2.07988 4.14278 1.5 5.54131 1.5 7C1.5 7.72222 1.64258 8.43724 1.91895 9.10449C2.19535 9.77178 2.60061 10.3779 3.11133 10.8887C3.62205 11.3994 4.22822 11.8047 4.89551 12.0811C5.56276 12.3574 6.27778 12.5 7 12.5C7.72222 12.5 8.43724 12.3574 9.10449 12.0811C9.77178 11.8047 10.3779 11.3994 10.8887 10.8887C11.3994 10.3779 11.8047 9.77178 12.0811 9.10449C12.3574 8.43724 12.5 7.72222 12.5 7ZM13.5 7C13.5 7.85359 13.3315 8.69869 13.0049 9.4873C12.6782 10.2759 12.2003 10.9931 11.5967 11.5967C10.9931 12.2003 10.2759 12.6782 9.4873 13.0049C8.69869 13.3315 7.85359 13.5 7 13.5C6.14641 13.5 5.30131 13.3315 4.5127 13.0049C3.72408 12.6782 3.0069 12.2003 2.40332 11.5967C1.79974 10.9931 1.32177 10.2759 0.995117 9.4873C0.668462 8.69869 0.5 7.85359 0.5 7C0.5 5.27609 1.18433 3.62231 2.40332 2.40332C3.62231 1.18433 5.27609 0.5 7 0.5C8.72391 0.5 10.3777 1.18433 11.5967 2.40332C12.8157 3.62231 13.5 5.27609 13.5 7Z" fill="#FF0000"/>
<path d="M6.50391 9.46155V6.59631C6.50391 6.3202 6.72781 6.09636 7.00391 6.09631C7.28005 6.09631 7.50391 6.32017 7.50391 6.59631V9.46155C7.50391 9.73769 7.28005 9.96155 7.00391 9.96155C6.72781 9.9615 6.50391 9.73766 6.50391 9.46155ZM6.5 4.56897V4.52698C6.5 4.25084 6.72386 4.02698 7 4.02698C7.27614 4.02698 7.5 4.25084 7.5 4.52698V4.56897C7.5 4.84511 7.27614 5.06897 7 5.06897C6.72386 5.06897 6.5 4.84511 6.5 4.56897Z" fill="#FF0000"/>
</svg>
